<svg id="cumpleaños_15x" xmlns="http://www.w3.org/2000/svg" width="15" height="15" viewBox="0 0 15 15">
  <rect id="Rectangle_555" data-name="Rectangle 555" width="15" height="15" fill="none"/>
  <g id="Group_484" data-name="Group 484" transform="translate(2 2)">
    <path id="Path_1544" data-name="Path 1544" d="M1185.328,358.135h-.209a.944.944,0,0,1-1.692,0h-.209a.944.944,0,0,1-1.692,0h-.209a.943.943,0,0,1-1.692,0h-.209a.944.944,0,0,1-1.692,0h-.107a.938.938,0,0,1-1.253.431v2.491a.777.777,0,0,0,.778.777h8.66a.777.777,0,0,0,.778-.777v-2.491a.938.938,0,0,1-1.253-.431Z" transform="translate(-1175.823 -351.046)" fill="none" stroke="#1ec1af" stroke-miterlimit="10" stroke-width="1"/>
    <path id="Path_1545" data-name="Path 1545" d="M1186.416,352.308a.535.535,0,0,0-.535-.535h-10.227a.535.535,0,0,0-.535.535V354c0,.01,0,.018,0,.028a.822.822,0,0,0-.008.082.948.948,0,0,0,1.8.424h.107a.944.944,0,0,0,1.692,0h.209a.943.943,0,0,0,1.691,0h.209a.944.944,0,0,0,1.692,0h.209a.944.944,0,0,0,1.692,0h.209a.949.949,0,0,0,1.8-.424c0-.019,0-.036-.006-.055a.452.452,0,0,0,.006-.055Z" transform="translate(-1175.114 -347.444)" fill="none" stroke="#1ec1af" stroke-miterlimit="10" stroke-width="1"/>
    <rect id="Rectangle_498" data-name="Rectangle 498" width="1.353" height="1.601" transform="translate(4.974 2.727)" fill="none" stroke="#1ec1af" stroke-linecap="round" stroke-linejoin="round" stroke-width="1"/>
    <path id="Path_1546" data-name="Path 1546" d="M1187.9,343.167a.787.787,0,1,1-1.573,0c0-.434.787-1.369.787-1.369S1187.9,342.732,1187.9,343.167Z" transform="translate(-1181.459 -341.798)" fill="none" stroke="#1ec1af" stroke-linecap="round" stroke-linejoin="round" stroke-width="1"/>
    <line id="Line_49" data-name="Line 49" y2="0.572" transform="translate(5.651 2.156)" fill="none" stroke="#1ec1af" stroke-linecap="round" stroke-linejoin="round" stroke-width="1"/>
  </g>
</svg>
