<svg id="eliminar_15x" xmlns="http://www.w3.org/2000/svg" width="15" height="15" viewBox="0 0 15 15">
  <rect id="Rectangle_567" data-name="Rectangle 567" width="15" height="15" fill="none"/>
  <g id="Group_628" data-name="Group 628" transform="translate(2 1.5)">
    <line id="Line_54" data-name="Line 54" x2="11.431" transform="translate(0 1.772)" fill="none" stroke="#1ec1af" stroke-linecap="round" stroke-linejoin="round" stroke-width="1"/>
    <path id="Path_1561" data-name="Path 1561" d="M655.808,509.866H650.33a1.516,1.516,0,0,1-1.516-1.516v-8.241h8.509v8.241A1.516,1.516,0,0,1,655.808,509.866Z" transform="translate(-647.353 -498.337)" fill="none" stroke="#1ec1af" stroke-linecap="round" stroke-linejoin="round" stroke-width="1" fill-rule="evenodd"/>
    <path id="Path_1562" data-name="Path 1562" d="M654.656,497.952v-1.208a.564.564,0,0,1,.564-.564h2.111a.564.564,0,0,1,.564.564v1.208" transform="translate(-650.559 -496.18)" fill="none" stroke="#1ec1af" stroke-linecap="round" stroke-linejoin="round" stroke-width="1" fill-rule="evenodd"/>
    <g id="Group_490" data-name="Group 490" transform="translate(3.599 4.1)">
      <line id="Line_55" data-name="Line 55" y2="5.419" transform="translate(4.234 0)" fill="none" stroke="#1ec1af" stroke-linecap="round" stroke-linejoin="round" stroke-width="1"/>
      <line id="Line_56" data-name="Line 56" y2="5.419" transform="translate(2.117 0)" fill="none" stroke="#1ec1af" stroke-linecap="round" stroke-linejoin="round" stroke-width="1"/>
      <line id="Line_57" data-name="Line 57" y2="5.419" transform="translate(0 0)" fill="none" stroke="#1ec1af" stroke-linecap="round" stroke-linejoin="round" stroke-width="1"/>
    </g>
  </g>
</svg>
