<svg xmlns="http://www.w3.org/2000/svg" width="219.233" height="218.182" viewBox="0 0 219.233 218.182"><defs><style>.a{fill:#1ec0ca;}.b{fill:#6bd8ca;}.c{fill:#39b39d;}.d{fill:#00202d;}</style></defs><path class="a" d="M275.935,257.7a9.943,9.943,0,1,1-9.942-9.944A9.943,9.943,0,0,1,275.935,257.7Z" transform="translate(-192.744 -210.213)"/><circle class="a" cx="9.945" cy="9.945" r="9.945" transform="translate(135.118 37.542)"/><path class="a" d="M375.486,314.055a9.942,9.942,0,1,1-9.944-9.945A9.94,9.94,0,0,1,375.486,314.055Z" transform="translate(-183.651 -205.065)"/><path class="b" d="M341.741,370.751a9.944,9.944,0,1,1-9.944-9.944A9.945,9.945,0,0,1,341.741,370.751Z" transform="translate(-186.733 -199.887)"/><path class="c" d="M275.935,370.751a9.943,9.943,0,1,1-9.942-9.944A9.943,9.943,0,0,1,275.935,370.751Z" transform="translate(-192.744 -199.887)"/><path class="c" d="M243.2,314.055a9.944,9.944,0,1,1-9.942-9.945A9.941,9.941,0,0,1,243.2,314.055Z" transform="translate(-195.734 -205.065)"/><path class="b" d="M260.721,285.189A11.785,11.785,0,1,1,248.935,273.4,11.787,11.787,0,0,1,260.721,285.189Z" transform="translate(-194.471 -207.87)"/><path class="a" d="M311.1,256.167a11.785,11.785,0,1,1-11.786-11.785A11.784,11.784,0,0,1,311.1,256.167Z" transform="translate(-189.868 -210.522)"/><path class="a" d="M361.284,285.189A11.784,11.784,0,1,1,349.5,273.4,11.785,11.785,0,0,1,361.284,285.189Z" transform="translate(-185.285 -207.87)"/><path class="b" d="M361.284,343.906A11.784,11.784,0,1,1,349.5,332.12,11.784,11.784,0,0,1,361.284,343.906Z" transform="translate(-185.285 -202.508)"/><path class="c" d="M311.1,372.588a11.785,11.785,0,1,1-11.786-11.781A11.782,11.782,0,0,1,311.1,372.588Z" transform="translate(-189.868 -199.887)"/><path class="c" d="M260.721,343.906a11.785,11.785,0,1,1-11.785-11.786A11.786,11.786,0,0,1,260.721,343.906Z" transform="translate(-194.471 -202.508)"/><path class="b" d="M249.367,257.579a8.469,8.469,0,1,1-8.468-8.47A8.472,8.472,0,0,1,249.367,257.579Z" transform="translate(-194.901 -210.09)"/><path class="c" d="M229.46,292.674a8.472,8.472,0,1,1-8.47-8.471A8.47,8.47,0,0,1,229.46,292.674Z" transform="translate(-196.721 -206.883)"/><path class="a" d="M287.5,234.181a8.471,8.471,0,1,1-8.472-8.472A8.469,8.469,0,0,1,287.5,234.181Z" transform="translate(-191.419 -212.227)"/><path class="a" d="M364.778,255.893a8.469,8.469,0,1,1-8.467-8.472A8.468,8.468,0,0,1,364.778,255.893Z" transform="translate(-184.36 -210.245)"/><path class="a" d="M386.041,335.87a8.47,8.47,0,1,1-8.472-8.472A8.467,8.467,0,0,1,386.041,335.87Z" transform="translate(-182.418 -202.938)"/><path class="b" d="M364.782,372.311a8.472,8.472,0,1,1-8.469-8.467A8.468,8.468,0,0,1,364.782,372.311Z" transform="translate(-184.36 -199.61)"/><path class="c" d="M327.884,392.9a8.47,8.47,0,1,1-8.472-8.468A8.468,8.468,0,0,1,327.884,392.9Z" transform="translate(-187.73 -197.729)"/><path class="c" d="M287.5,392.9a8.471,8.471,0,1,1-8.472-8.468A8.469,8.469,0,0,1,287.5,392.9Z" transform="translate(-191.419 -197.729)"/><path class="c" d="M250.715,372.311a8.47,8.47,0,1,1-8.468-8.467A8.469,8.469,0,0,1,250.715,372.311Z" transform="translate(-194.778 -199.61)"/><path class="c" d="M229.46,335.87a8.472,8.472,0,1,1-8.47-8.472A8.468,8.468,0,0,1,229.46,335.87Z" transform="translate(-196.721 -202.938)"/><path class="a" d="M327.884,234.181a8.47,8.47,0,1,1-8.472-8.472A8.469,8.469,0,0,1,327.884,234.181Z" transform="translate(-187.73 -212.227)"/><path class="a" d="M386.041,292.674a8.47,8.47,0,1,1-8.472-8.471A8.469,8.469,0,0,1,386.041,292.674Z" transform="translate(-182.418 -206.883)"/><path class="b" d="M254.828,230.5a4.79,4.79,0,1,1-4.789-4.79A4.789,4.789,0,0,1,254.828,230.5Z" transform="translate(-193.73 -212.227)"/><path class="a" d="M303.524,218.142a4.789,4.789,0,1,1-4.791-4.786A4.791,4.791,0,0,1,303.524,218.142Z" transform="translate(-189.282 -213.356)"/><path class="a" d="M351.7,230.5a4.79,4.79,0,1,1-4.788-4.79A4.789,4.789,0,0,1,351.7,230.5Z" transform="translate(-184.882 -212.227)"/><path class="a" d="M386.44,266.381a4.79,4.79,0,1,1-4.792-4.787A4.79,4.79,0,0,1,386.44,266.381Z" transform="translate(-181.709 -208.95)"/><path class="a" d="M399.728,313.624a4.788,4.788,0,1,1-4.792-4.785A4.79,4.79,0,0,1,399.728,313.624Z" transform="translate(-180.495 -204.633)"/><path class="b" d="M386.44,361.208a4.79,4.79,0,1,1-4.792-4.789A4.791,4.791,0,0,1,386.44,361.208Z" transform="translate(-181.709 -200.288)"/><path class="b" d="M351.7,396.976a4.79,4.79,0,1,1-4.788-4.787A4.791,4.791,0,0,1,351.7,396.976Z" transform="translate(-184.882 -197.02)"/><path class="c" d="M303.524,409.294a4.789,4.789,0,1,1-4.791-4.792A4.789,4.789,0,0,1,303.524,409.294Z" transform="translate(-189.282 -195.895)"/><path class="c" d="M219.789,361.208a4.79,4.79,0,1,1-4.79-4.789A4.791,4.791,0,0,1,219.789,361.208Z" transform="translate(-196.931 -200.288)"/><path class="c" d="M207.619,313.624a4.788,4.788,0,1,1-4.787-4.785A4.787,4.787,0,0,1,207.619,313.624Z" transform="translate(-198.042 -204.633)"/><path class="c" d="M254.828,396.976a4.79,4.79,0,1,1-4.789-4.787A4.792,4.792,0,0,1,254.828,396.976Z" transform="translate(-193.73 -197.02)"/><path class="c" d="M219.789,266.381a4.79,4.79,0,1,1-4.79-4.787A4.789,4.789,0,0,1,219.789,266.381Z" transform="translate(-196.931 -208.95)"/><g transform="translate(64.667 87.015)"><path class="d" d="M261.966,300.432a7.251,7.251,0,0,1,7.573-7.345,7,7,0,0,1,5.282,2.105l-.97.969a5.727,5.727,0,0,0-4.271-1.712,5.985,5.985,0,1,0,0,11.967,5.668,5.668,0,0,0,4.271-1.733l.97.97a7.026,7.026,0,0,1-5.3,2.125A7.246,7.246,0,0,1,261.966,300.432Z" transform="translate(-256.871 -293.087)"/><path class="d" d="M275.274,300.432a7.586,7.586,0,1,1,7.592,7.346A7.269,7.269,0,0,1,275.274,300.432Zm13.637,0a6.066,6.066,0,1,0-6.045,5.984A5.85,5.85,0,0,0,288.911,300.432Z" transform="translate(-255.655 -293.087)"/><path class="d" d="M291.039,305.9l.6-1.175a7.091,7.091,0,0,0,4.767,1.754c2.7,0,3.879-1.135,3.879-2.558,0-3.962-8.892-1.528-8.892-6.871,0-2.125,1.651-3.962,5.324-3.962a8.153,8.153,0,0,1,4.477,1.28l-.515,1.217a7.441,7.441,0,0,0-3.962-1.2c-2.641,0-3.817,1.175-3.817,2.621,0,3.962,8.892,1.567,8.892,6.83,0,2.125-1.691,3.94-5.385,3.94A7.824,7.824,0,0,1,291.039,305.9Z" transform="translate(-254.215 -293.087)"/><path class="d" d="M318.929,293.2v14.444h-1.465V296.09l-5.674,9.717h-.722l-5.674-9.656v11.493H303.93V293.2h1.258l6.272,10.709,6.211-10.709Z" transform="translate(-253.037 -293.077)"/><path class="d" d="M320.81,300.432a7.586,7.586,0,1,1,7.594,7.346A7.269,7.269,0,0,1,320.81,300.432Zm13.638,0a6.067,6.067,0,1,0-6.045,5.984A5.851,5.851,0,0,0,334.448,300.432Z" transform="translate(-251.496 -293.087)"/><path class="d" d="M269.367,315.884v14.443h-1.258l-9.284-11.719v11.719H257.3V315.884h1.259l9.3,11.72v-11.72Z" transform="translate(-257.297 -291.005)"/><path class="d" d="M281.915,326.469h-8.046l-1.734,3.858h-1.588l6.6-14.443h1.506l6.6,14.443h-1.61Zm-.557-1.239-3.466-7.757-3.467,7.757Z" transform="translate(-256.087 -291.005)"/><path class="d" d="M285.821,324.159v-8.275h1.526V324.1c0,3.426,1.61,4.993,4.416,4.993,2.828,0,4.437-1.567,4.437-4.993v-8.211h1.484v8.275c0,4.147-2.227,6.292-5.922,6.292S285.821,328.306,285.821,324.159Z" transform="translate(-254.692 -291.005)"/><path class="d" d="M303.636,317.2H298.56v-1.321h11.68V317.2h-5.077v13.122h-1.527Z" transform="translate(-253.528 -291.005)"/><path class="d" d="M325.191,329.017v1.321H315.059v-1.052l6-5.88c1.631-1.61,1.94-2.58,1.94-3.57,0-1.671-1.176-2.7-3.385-2.7a4.9,4.9,0,0,0-3.939,1.609l-1.053-.908a6.49,6.49,0,0,1,5.117-2.064c2.929,0,4.785,1.486,4.785,3.9,0,1.382-.432,2.62-2.373,4.518l-4.911,4.828Z" transform="translate(-252.06 -291.015)"/><path class="d" d="M326.213,328.266a1.093,1.093,0,0,1,1.094-1.114,1.109,1.109,0,0,1,1.114,1.114,1.127,1.127,0,0,1-1.114,1.135A1.111,1.111,0,0,1,326.213,328.266Z" transform="translate(-251.002 -289.975)"/><path class="d" d="M329.994,323.116c0-4.6,2.415-7.346,5.757-7.346s5.776,2.745,5.776,7.346-2.434,7.345-5.776,7.345S329.994,327.717,329.994,323.116Zm10.008,0c0-3.858-1.733-5.983-4.251-5.983s-4.25,2.125-4.25,5.983,1.733,5.983,4.25,5.983S340,326.974,340,323.116Z" transform="translate(-250.657 -291.015)"/></g></svg>