<svg id="teléfono_15x" xmlns="http://www.w3.org/2000/svg" width="15" height="15" viewBox="0 0 15 15">
  <rect id="Rectangle_558" data-name="Rectangle 558" width="15" height="15" fill="none"/>
  <path id="Path_1550" data-name="Path 1550" d="M1183.726,501.237a2.054,2.054,0,0,0-1.242,1.14c-1.914-.692-3.892-3.625-3.892-3.625l-.008.015a4.994,4.994,0,0,1-.351-.748,2.055,2.055,0,0,0,1.14-1.242l-2.932-2.932a3.872,3.872,0,0,0-1.1,4.846,13.114,13.114,0,0,0,2.1,3.118,12.283,12.283,0,0,0,2.445,2.332l.039.03v0a11.412,11.412,0,0,0,1.889,1.1,3.873,3.873,0,0,0,4.847-1.1Z" transform="translate(-1172.643 -492.096)" fill="none" stroke="#1ec1af" stroke-linecap="round" stroke-linejoin="round" stroke-width="1"/>
</svg>
