<svg xmlns="http://www.w3.org/2000/svg" width="789.507" height="359.438" viewBox="0 0 789.507 359.438"><defs><style>.a{fill:#9bc1f9;}.b,.h{fill:#f7cc7f;}.c{fill:#96d9c9;}.d{fill:#3c8f7c;}.e{fill:#50bfa5;}.f{fill:#e59f39;}.g{fill:#eab054;}.h{opacity:0.3;mix-blend-mode:multiply;isolation:isolate;}.i{fill:#f48c7f;}.j{fill:#f7a491;}.k{fill:#13375b;}.l{fill:#355389;}.m{fill:#466eb6;}.n{fill:#f47458;}.o{fill:#fff;}.p{fill:#f8a492;}</style></defs><g transform="translate(-43.078 -180.698)"><path class="a" d="M1701.907,343.129l10.046,6.906c.633.073,1.013-.4,1.965-1.559,1.7-2.075,3.41-4.151,5.185-6.165a1.734,1.734,0,0,1,1.405-.413c2.576.526,5.12,1.208,7.7,1.708.8.155,1.185.361,1.4,1.192.852,3.323,1.8,6.623,2.7,9.895,3.118.253,10.731-1.066,13.138-2.3-.288-3.256-.532-6.587-.907-9.9a1.652,1.652,0,0,1,1.069-1.99,68.767,68.767,0,0,0,6.431-4.08,1.9,1.9,0,0,1,2.431-.258c2.564,1.542,5.221,2.928,7.812,4.427.7.4,1.21.41,1.675-.255q3.285-4.7,6.565-9.4c.538-.77-.123-1.127-.558-1.5-2.2-1.9-4.395-3.806-6.658-5.626a1.879,1.879,0,0,1-.7-2.35c.805-2.815,1.427-5.682,2.175-8.747l10.558-2.95a39.165,39.165,0,0,0-2.427-13.04l-10.707.906c-1.953-2.9-3.7-5.627-5.6-8.243a1.477,1.477,0,0,1-.109-1.943c1.482-2.551,2.883-5.148,4.347-7.709.317-.554.479-.982-.072-1.494a37.463,37.463,0,0,0-9.211-6.566,1.178,1.178,0,0,0-1.668.394c-1.96,2.319-3.965,4.6-5.916,6.929a1.368,1.368,0,0,1-1.645.553c-2.81-.675-5.653-1.229-8.5-1.71a1.162,1.162,0,0,1-1.094-1.024c-.924-3.305-1.871-6.6-2.835-9.99a42.03,42.03,0,0,0-12.919,2.267c.32,3.79.639,7.555.944,11.158l-9.253,5.91c-2.3-1.278-4.931-2.769-7.59-4.215-2.182-1.187-1.77-1.422-3.5.6a4.116,4.116,0,0,1-.6.487l-3.892,5.661a8.126,8.126,0,0,1-.648,1.4c-.762,1.074-.706,1.835.422,2.721,2.35,1.847,4.586,3.843,6.821,5.831a1.589,1.589,0,0,1,.417,1.261c-.473,2.543-1.169,5.052-1.508,7.609a1.943,1.943,0,0,1-1.758,1.934c-3.147.818-6.259,1.765-9.7,2.751l2.272,12.962c.829-.055,1.307-.078,1.784-.118,2.938-.249,5.879-.472,8.812-.773a1.482,1.482,0,0,1,1.625.9c1.492,2.372,3.136,4.649,4.644,7.011a1.752,1.752,0,0,1,.044,1.483c-1.121,2.143-2.361,4.224-3.525,6.346C1701.839,341.717,1701.5,342.358,1701.907,343.129Zm18.229-16.291a19.729,19.729,0,0,1-5.081-27.435h0a19.73,19.73,0,0,1,27.435-5.081h0a19.73,19.73,0,0,1,5.081,27.435h0a19.729,19.729,0,0,1-27.435,5.081Z" transform="matrix(0.921, 0.391, -0.391, 0.921, -949.456, -708.874)"/><path class="b" d="M2174.721,503.435l4.84,21.245c.743.862,1.814.7,4.472.332,4.754-.664,9.51-1.328,14.282-1.824a3.1,3.1,0,0,1,2.347,1.159c2.748,3.811,5.266,7.789,8.052,11.571.863,1.172,1.12,1.91.394,3.261-2.9,5.4-5.658,10.882-8.437,16.274,3.792,4.109,15.4,11.6,20.06,12.884,3.565-4.629,7.279-9.3,10.8-14.117,1.1-1.5,1.922-1.8,3.815-1.321a122.932,122.932,0,0,0,13.4,2.427c1.821.248,2.928.624,3.509,2.6,1.5,5.133,3.317,10.173,4.907,15.282.427,1.373,1.094,2.005,2.512,1.694q10.009-2.2,20.016-4.406c1.64-.361,1.2-1.63,1.086-2.65-.6-5.159-1.167-10.325-1.937-15.459-.289-1.928.232-2.912,1.92-3.942,4.468-2.725,8.758-5.741,13.454-8.864l17.452,8.91a70.03,70.03,0,0,0,12.6-20.08L2309.1,516.638c.946-6.178,1.949-11.881,2.618-17.622a2.64,2.64,0,0,1,2.209-2.686c5.037-1.559,10.025-3.274,15.051-4.867,1.087-.344,1.819-.711,1.715-2.052a66.974,66.974,0,0,0-4.155-19.787,2.106,2.106,0,0,0-2.67-1.5c-5.387.675-10.786,1.246-16.169,1.943a2.446,2.446,0,0,1-2.832-1.266c-2.877-4.291-5.942-8.462-9.107-12.547a2.078,2.078,0,0,1-.2-2.67c2.789-5.464,5.539-10.948,8.373-16.566a75.133,75.133,0,0,0-19.728-12.668l-12.273,15.81-19.322-3.439c-1.471-4.46-3.128-9.612-4.872-14.734-1.431-4.2-.6-4.013-5.323-3.45a7.391,7.391,0,0,1-1.381-.089l-11.973,2.728a14.555,14.555,0,0,1-2.55,1.058c-2.3.49-3.149,1.557-2.74,4.088.852,5.275,1.374,10.606,1.9,15.926a2.84,2.84,0,0,1-.979,2.162c-3.7,2.769-7.655,5.225-11.2,8.176-1.733,1.444-2.846,1.377-4.653.413-5.126-2.736-10.365-5.261-16.082-8.131l-12.712,19.79c1.156.933,1.813,1.481,2.488,2,4.164,3.231,8.3,6.5,12.52,9.657,1.2.9,1.313,1.717,1.047,3.151-.913,4.925-1.509,9.908-2.388,14.841a3.132,3.132,0,0,1-1.739,2c-4.07,1.459-8.219,2.693-12.319,4.072C2176.341,501.5,2175.113,501.923,2174.721,503.435Zm43.694.664a35.265,35.265,0,0,1,26.55-42.217h0a35.265,35.265,0,0,1,42.217,26.55h0a35.264,35.264,0,0,1-26.55,42.217h0a35.265,35.265,0,0,1-42.217-26.55Z" transform="translate(-1650.988 134.58) rotate(-8)"/><path class="c" d="M2160.777,233.569l6.121,4.208c.386.045.617-.243,1.2-.95,1.039-1.264,2.077-2.53,3.159-3.757a1.057,1.057,0,0,1,.856-.252c1.57.321,3.12.736,4.692,1.041.487.094.722.22.852.726.52,2.025,1.1,4.035,1.644,6.029a22.883,22.883,0,0,0,8.005-1.4c-.175-1.984-.324-4.014-.552-6.035a1.007,1.007,0,0,1,.651-1.213,41.967,41.967,0,0,0,3.919-2.486,1.154,1.154,0,0,1,1.481-.157c1.563.939,3.182,1.784,4.761,2.7.425.245.737.25,1.021-.156q2-2.863,4-5.728c.328-.47-.074-.687-.34-.915-1.342-1.155-2.678-2.319-4.057-3.428a1.145,1.145,0,0,1-.429-1.432c.491-1.715.869-3.463,1.325-5.33l6.434-1.8a23.872,23.872,0,0,0-1.479-7.946l-6.524.552c-1.19-1.767-2.256-3.429-3.414-5.023a.9.9,0,0,1-.067-1.184c.9-1.554,1.757-3.137,2.649-4.7.193-.337.292-.6-.044-.911a22.834,22.834,0,0,0-5.613-4,.718.718,0,0,0-1.017.24c-1.194,1.414-2.416,2.8-3.6,4.222a.833.833,0,0,1-1,.337c-1.713-.411-3.445-.749-5.182-1.042a.709.709,0,0,1-.667-.624c-.562-2.014-1.14-4.024-1.727-6.087a25.614,25.614,0,0,0-7.873,1.381c.2,2.309.39,4.6.576,6.8l-5.639,3.6c-1.4-.779-3-1.687-4.625-2.569-1.329-.723-1.078-.867-2.131.365a2.5,2.5,0,0,1-.367.3l-2.371,3.45a4.994,4.994,0,0,1-.4.854,1.028,1.028,0,0,0,.257,1.658c1.432,1.126,2.794,2.342,4.156,3.553a.97.97,0,0,1,.254.768c-.289,1.549-.713,3.078-.919,4.637a1.184,1.184,0,0,1-1.071,1.178c-1.917.5-3.814,1.076-5.91,1.677l1.385,7.9c.505-.033.8-.048,1.087-.072,1.791-.152,3.583-.287,5.37-.471a.9.9,0,0,1,.99.548c.909,1.446,1.91,2.833,2.829,4.272a1.069,1.069,0,0,1,.027.9c-.683,1.306-1.438,2.574-2.148,3.867C2160.735,232.709,2160.526,233.1,2160.777,233.569Zm11.108-9.927a12.023,12.023,0,0,1-3.1-16.718h0a12.022,12.022,0,0,1,16.718-3.1h0a12.022,12.022,0,0,1,3.1,16.718h0a12.022,12.022,0,0,1-16.718,3.1Z" transform="translate(-1560.099 608.8) rotate(-16)"/><g transform="translate(173.178 225.714) rotate(-19)"><g transform="translate(19.984 0)"><g transform="translate(0 0)"><path class="d" d="M531.944,382.105s-60.016-29.592-70.337-45.025,4.851-16.308,4.851-16.308-26.782-26.047-23.014-37.013,17.642-.909,17.642-.909-17.221-38.335-9.1-42.188c15.124-7.178,36.341,34.068,36.341,34.068s-4.56-17.918,5.855-17.335c15.706.878,15.057,41.409,15.057,41.409s1.774-15.541,11.24-10.493C537.464,297.368,531.944,382.105,531.944,382.105Z" transform="translate(-443.081 -239.823)"/></g><path class="e" d="M558.418,282.041c-7.392-4.1-14.755,7.887-14.755,7.887s.746-31.657-14.961-32.535c-10.415-.582-5.855,17.335-5.855,17.335s-21.217-41.246-36.341-34.068l80.028,140.785C567.1,371.615,573.062,290.167,558.418,282.041Z" transform="translate(-477.603 -239.823)"/></g><g transform="translate(0 74.892)"><g transform="translate(0 4.615)"><path class="d" d="M452.914,690.728s-49.085,6.1-61.794.664-3.6-12.143-3.6-12.143-27.289-5.364-29.395-13.735,10.483-7.7,10.483-7.7-26.167-16.945-22.668-22.648c6.517-10.623,36.51,6.482,36.51,6.482s-10.125-9.323-3.392-13.192c10.153-5.834,26.218,19.71,26.218,19.71s-1-6.3,6.958-6.994C426.508,639.916,452.914,690.728,452.914,690.728Z" transform="translate(-345.617 -627.586)"/></g><path class="e" d="M413.8,618.7c-7.956.7-7.28,11.569-7.28,11.569s-16.355-30.28-26.509-24.445c-6.733,3.869,1.233,16.575,1.233,16.575s-27.544-15.752-34.061-5.13L454.31,672.561C450.668,666.2,427.137,617.529,413.8,618.7Z" transform="translate(-346.865 -605.076)"/></g></g><g transform="translate(166.812 517.481)"><path class="f" d="M203.842,1819.015v13.858c0,2.24,24.993,4.057,55.824,4.057s55.824-1.817,55.824-4.057v-13.858Z" transform="translate(-203.842 -1814.811)"/><g transform="translate(0 4.204)"><path class="g" d="M244.241,1836.773v-17.758h-40.4v13.858C203.842,1834.725,220.913,1836.286,244.241,1836.773Z" transform="translate(-203.842 -1819.015)"/><path class="g" d="M410.04,1836.809c4.336.079,8.874.12,13.545.12,6.96,0,13.623-.093,19.768-.262v-17.653H410.04Z" transform="translate(-367.761 -1819.015)"/><path class="g" d="M583.419,1836.6c19.889-.62,33.819-2.056,33.819-3.729v-13.858H583.419Z" transform="translate(-505.59 -1819.015)"/></g><ellipse class="f" cx="55.824" cy="4.057" rx="55.824" ry="4.057"/><ellipse class="b" cx="45.97" cy="2.813" rx="45.97" ry="2.813" transform="translate(9.854 1.244)"/></g><g transform="translate(157.261 502.201)"><path class="f" d="M157.261,1744.494v13.858c0,2.24,24.993,4.056,55.824,4.056s55.824-1.816,55.824-4.056v-13.858Z" transform="translate(-157.261 -1740.29)"/><g transform="translate(0 4.204)"><path class="g" d="M197.66,1762.252v-17.758h-40.4v13.858C157.261,1760.2,174.332,1761.765,197.66,1762.252Z" transform="translate(-157.261 -1744.494)"/><path class="g" d="M363.459,1762.288c4.337.078,8.874.12,13.545.12,6.961,0,13.623-.092,19.768-.261v-17.653H363.459Z" transform="translate(-321.18 -1744.494)"/><path class="g" d="M536.838,1762.082c19.889-.621,33.819-2.057,33.819-3.729v-13.858H536.838Z" transform="translate(-459.009 -1744.494)"/></g><ellipse class="f" cx="55.824" cy="4.057" rx="55.824" ry="4.057" transform="translate(0)"/><ellipse class="b" cx="45.97" cy="2.813" rx="45.97" ry="2.813" transform="translate(9.854 1.244)"/></g><g transform="translate(163.624 487.147)"><path class="f" d="M188.3,1671.072v13.859c0,2.24,24.993,4.056,55.824,4.056s55.824-1.816,55.824-4.056v-13.859Z" transform="translate(-188.296 -1666.868)"/><g transform="translate(0 4.204)"><path class="g" d="M228.695,1688.83v-17.758H188.3v13.859C188.3,1686.782,205.367,1688.344,228.695,1688.83Z" transform="translate(-188.296 -1671.072)"/><path class="g" d="M394.494,1688.867c4.337.078,8.874.12,13.545.12,6.961,0,13.623-.093,19.768-.262v-17.653H394.494Z" transform="translate(-352.215 -1671.072)"/><path class="g" d="M567.873,1688.66c19.889-.621,33.819-2.057,33.819-3.729v-13.859H567.873Z" transform="translate(-490.044 -1671.072)"/></g><ellipse class="f" cx="55.824" cy="4.057" rx="55.824" ry="4.057" transform="translate(0)"/><ellipse class="b" cx="45.97" cy="2.813" rx="45.97" ry="2.813" transform="translate(9.854 1.244)"/></g><g transform="translate(187.162 472.299)"><path class="f" d="M303.092,1598.656v13.858c0,2.241,24.993,4.057,55.824,4.057s55.824-1.816,55.824-4.057v-13.858Z" transform="translate(-303.092 -1594.452)"/><g transform="translate(0 4.204)"><path class="g" d="M343.491,1616.414v-17.758h-40.4v13.858C303.092,1614.366,320.163,1615.928,343.491,1616.414Z" transform="translate(-303.092 -1598.656)"/><path class="g" d="M509.29,1616.451c4.337.078,8.874.12,13.545.12,6.96,0,13.623-.093,19.768-.262v-17.653H509.29Z" transform="translate(-467.011 -1598.656)"/><path class="g" d="M682.67,1616.244c19.889-.621,33.819-2.057,33.819-3.729v-13.858H682.67Z" transform="translate(-604.841 -1598.656)"/></g><path class="f" d="M414.74,1582.211c0,2.24-24.993,4.057-55.824,4.057s-55.824-1.816-55.824-4.057,24.993-4.057,55.824-4.057S414.74,1579.971,414.74,1582.211Z" transform="translate(-303.092 -1578.155)"/><path class="b" d="M443.092,1587.034c0,1.553-20.582,2.813-45.97,2.813s-45.97-1.259-45.97-2.813,20.581-2.812,45.97-2.812S443.092,1585.481,443.092,1587.034Z" transform="translate(-341.298 -1582.978)"/></g><g transform="translate(252.005 503.126)"><rect class="e" width="97.796" height="35.594" transform="translate(13.582 0)"/><g transform="translate(13.582 0)"><rect class="c" width="97.796" height="4.579" transform="translate(0 5.187)"/><rect class="c" width="97.796" height="4.579" transform="translate(0 14.131)"/><rect class="c" width="97.796" height="4.579" transform="translate(0 23.076)"/><rect class="c" width="97.796" height="4.579" transform="translate(0 31.015)"/><rect class="b" width="20.339" height="35.594" transform="translate(41.051)"/></g><rect class="d" width="14.769" height="35.594" transform="translate(0 0)"/></g><g transform="translate(184.297 330.322) rotate(13)"><ellipse class="f" cx="46.972" cy="47.354" rx="46.972" ry="47.354" transform="matrix(0.828, -0.56, 0.56, 0.828, 0, 52.655)"/><ellipse class="b" cx="40.601" cy="40.931" rx="40.601" ry="40.931" transform="translate(8.877 54.399) rotate(-34.086)"/><g transform="translate(41.607 34.732)"><path class="f" d="M449.676,1177.45l-4.285-6.3a36.984,36.984,0,0,1-8.9,3.985,4.635,4.635,0,0,1-5.648-2.88l-.1-.277a4.626,4.626,0,0,1,3.107-6.036,27,27,0,0,0,8.032-3.653c3.778-2.57,5.371-5.788,3.567-8.439-1.714-2.519-4.917-2.666-10.95-.986-8.715,2.439-15.809,2.417-20.183-4.012-3.968-5.833-2.971-13.2,3.174-19.419l-4.284-6.3,6.5-4.42,3.969,5.833a34.175,34.175,0,0,1,6.642-3.242,4.628,4.628,0,0,1,5.871,2.81h0a4.631,4.631,0,0,1-2.934,5.983,24.632,24.632,0,0,0-6.385,3.136c-4.308,2.931-4.437,5.734-3.174,7.59,1.488,2.187,4.755,2,11.832.288,9.781-2.583,15.444-1.1,19.5,4.864,4.014,5.9,3.265,13.778-3.455,20.289l4.6,6.761Z" transform="translate(-411.951 -1118.719)"/></g><path class="h" d="M349.779,1076.057a40.367,40.367,0,0,0-18.552,29.215,40.258,40.258,0,0,1,17.552-24.028A41.012,41.012,0,0,1,411,1121.271a41.008,41.008,0,0,0-61.22-45.214Z" transform="translate(-306.172 -1045.135)"/></g><g transform="translate(217.781 262.796) rotate(-19)"><ellipse class="f" cx="44.499" cy="44.14" rx="44.499" ry="44.14" transform="translate(0 83.575) rotate(-69.895)"/><ellipse class="b" cx="38.464" cy="38.153" rx="38.464" ry="38.153" transform="translate(7.697 79.965) rotate(-69.895)"/><g transform="translate(35.95 25.245)"><path class="f" d="M674.9,662.416l2.444-6.727a34.758,34.758,0,0,1-7.929-4.591,4.356,4.356,0,0,1-.91-5.888l.156-.229a4.347,4.347,0,0,1,6.308-.951,25.374,25.374,0,0,0,7.2,4.114c4.036,1.466,7.364.912,8.393-1.921.977-2.691-.671-5.213-5.268-8.887-6.65-5.3-10.533-10.72-8.038-17.588,2.264-6.231,8.429-9.522,16.545-8.257l2.444-6.727,6.939,2.521-2.264,6.231a32.151,32.151,0,0,1,6.122,3.279,4.349,4.349,0,0,1,1.086,6.02h0a4.352,4.352,0,0,1-6.172,1.053,23.141,23.141,0,0,0-5.9-3.142c-4.6-1.672-6.809-.229-7.53,1.753-.849,2.336,1.089,4.724,6.285,9.176,7.346,6.035,9.329,11.164,7.015,17.537-2.29,6.3-8.705,10.063-17.363,8.521l-2.624,7.223Z" transform="translate(-667.746 -604.765)"/></g><path class="h" d="M713.453,574.749a37.933,37.933,0,0,0-32.464,1.921,37.831,37.831,0,0,1,27.962.168,38.54,38.54,0,0,1,3.7,69.425,38.536,38.536,0,0,0,.8-71.514Z" transform="translate(-642.324 -553.461)"/></g><path class="i" d="M2046.447,1783.893s2.635,2.572,2.7,3.515.233,11.054-.842,12-4.236,1.613-3.22,2.675c.768.8,6.675.631,10.591.415,1.142-.063,2.576-9.182,3.029-10.522.657-1.947,2.256-6.331,1.658-7.687a11.387,11.387,0,0,0-3.647-3.287,17.945,17.945,0,0,1-4.041-4.3Z" transform="translate(-1500.58 -1263.687)"/><path class="j" d="M1880.921,1840.45s2.358,6.662,2.361,6.679c.175,1.056.866,3.663.866,4.623,0,3.6-16.257-3.06-12.613-4.657a3.849,3.849,0,0,0,1.473-2.526c.167-1.89-1.369-4.261-1.369-4.261Z" transform="translate(-1362.353 -1314.256)"/><path class="k" d="M1778.02,1235.953s-1.185,11.943-1.185,12.121c0,19.32-3.83,57.059-3.1,60.692,1.777,8.86,20.9,54.055,20.9,54.055l10.336-1.235-13.469-54.112,4.956-21.781,7.013-43.053Z" transform="translate(-1284.955 -833.82)"/><path class="l" d="M1841.266,1253.125l1.961,11.32,5.306,46.588,20.208,45.533s-2.843,6.625-7.036,7.556l-32.161-46.749-19.979-59.819.7-13.29Z" transform="translate(-1313.513 -840.428)"/><path class="c" d="M2052.476,1797.37s-6.074,17.1-8.451,17.927c-.631.219-3.661.775-4.232,2.115a5.8,5.8,0,0,0,0,1.752h12.66s1.6-7.535,2.234-10.846c0,0,3.352-8.089,2.979-8.824S2052.476,1797.37,2052.476,1797.37Z" transform="translate(-1496.473 -1280.123)"/><path class="c" d="M1836.233,1879.125l-1.862-5.881s-3.91,1.654-5.865,1.378a59.289,59.289,0,0,1-5.771-1.378c-7.8,2.568-14.2,3.815-13.033,5.881h26.531Z" transform="translate(-1313.513 -1340.44)"/><path class="j" d="M1092.81,1794.716s-1.1,7.417-2.994,9.811a18.981,18.981,0,0,0-2.558,3.271c-1.186,2.26-.53,5.625.344,7.478.449.951-.032.949.991,1.255a6.337,6.337,0,0,0,7.539-3.439,17.059,17.059,0,0,0,1.479-6.32c.323-6.735,2.479-10.159,2.479-10.159Z" transform="translate(-738.798 -1278.013)"/><path class="k" d="M1160.353,863.814c1.362-3.615,2.561-7.314,3.824-10.852,2.431-6.807,4.467-13.892,4.768-21.159a33.236,33.236,0,0,0-3.011-15.955c-2.1-4.379-7.28-6.864-12.008-6.87-15.014-.019-16.923,19.9-26.48,27.587-2.018,1.622-4.2,3.037-6.268,4.592C1124.63,850.132,1134.147,862.877,1160.353,863.814Z" transform="translate(-766.273 -494.393)"/><path class="j" d="M1273.5,1811.262s.679,8.364.128,11.082c-.3,1.455-1.94,4.452-1.185,5.821a3.735,3.735,0,0,0,1.616,1.712l19.55.306c1.065.017.361-.649-.5-1.263-1.406-1-2.54-1.668-7.03-3.779-.292-.138-1.359-.8-1.743-1.024a13.413,13.413,0,0,1-2.8-2.4c-1.4-1.519-1.527-8.884-1.527-8.884Z" transform="translate(-886.364 -1291.167)"/><path class="l" d="M1280.042,1255.185s2.9,15.181,1.282,24.083-9.375,91.423-9.375,91.423l-8.622.473s-1.807-34.471-1.484-39.265,2.882-12.816,2.882-12.816l-.858-27.831,10.88-36.563Z" transform="translate(-878.066 -848.715)"/><path class="m" d="M1135.719,1239.035s-6.789,9.93-8.405,18.148,1.186,33.473-1.923,44.242c-1.683,5.83-8.063,14.832-9.033,22.365s-4.774,27.265-4.774,27.265l8.618,1.66,20.028-49.28,15.711-44.541,4.024-22.94Z" transform="translate(-758.647 -833.82)"/><path class="m" d="M1094.145,1862.232a9.748,9.748,0,0,1-9.448-3.836c-1.194,2.264-1.776,5.643-.9,7.5.773,1.638,3.033,1.591,4.813,1.656a4.664,4.664,0,0,0,4.271-2.54A15.02,15.02,0,0,0,1094.145,1862.232Z" transform="translate(-736.223 -1328.636)"/><path class="m" d="M1284.164,1872.3a18.181,18.181,0,0,1-11.131-.425c-.551,1.518-1.282,3.424-.895,4.522.475,1.345,1.15,1.649,1.747,1.664,4.723.121,17.3.284,20.9.33a.571.571,0,0,0,.457-.94C1294.35,1876.417,1284.549,1872.531,1284.164,1872.3Z" transform="translate(-886.195 -1339.353)"/><path class="i" d="M1368.932,952.014c-.046-.837-3.847.04-4.342-.622s4.162-2.65,4.062-3.369c-.185-1.325-5.234,1.864-5.358,1.26s4.921-4.149,3.923-4.862-4.848,4.221-5.269,3.632,3.993-4.266,3.313-5.658c-.364-.744-6.748,7.241-7.879,7.221s-.62-4.432-1.6-4.649.054,8.517-.365,9-8.963,11.464-12.521,14.117c-1.032-1.133-7.413-6.762-8.358-7.846-1.576,2.507-4.021,3.921-5.726,6.318,3.392,3.492,13.367,11.42,14.746,11.466,4.2.139,13.2-16.854,15.132-19.923s3.757-3.086,5.352-4.463S1368.978,952.851,1368.932,952.014Z" transform="translate(-931.333 -600.414)"/><path class="e" d="M1283.439,999.244s-14.171-10.9-16.831-15.812,3.624-8.393,8.566-8.448,15.4,14.646,15.4,14.646Z" transform="translate(-881.381 -626.361)"/><path class="i" d="M1517.743,1082.34l1.067.643a8.133,8.133,0,0,0,1.3.926c.267.063,7.554-.1,7.554-.1s.026,2.424-.021,2.424-3.832,3.084-3.832,3.084l-.807.369-4.964-1.482-4.533-.568s-3.215-.373-3.215-.452a20.842,20.842,0,0,1,.22-2.744c.126-.126,1.945-1.992,1.945-1.992s1.4-.314,1.443-.314,1.4-.266,1.443-.282,2.164.314,2.164.314Z" transform="translate(-1075.604 -711.317)"/><path class="c" d="M1209.823,970.417s-8.64-.552-12.059,3.183,7.583,33.274,8.2,38.027-3.168,17.39-3.168,17.39,20.3,4.094,26.1.246c0,0,.622-34.176,0-37.571s-6.66-18.656-7.9-20.014S1209.823,970.417,1209.823,970.417Z" transform="translate(-826.634 -622.707)"/><path class="j" d="M1260.864,913.343s-.045.255-.125.689c-.385,2.082-1.869,8.989-2.871,10.888-1.211,2.295,4.146,9.613,9.3,8.72,1.535-.266-1.3-6.724-1.161-7.408.261-1.31.614-3.1.976-4.928.2-1.033.411-2.081.6-3.066.552-2.8,1-5.088,1-5.088Z" transform="translate(-874.799 -577.205)"/><path class="n" d="M1271.632,914.032c.08-.434.125-.689.125-.689l7.727-.193s-.45,2.289-1,5.088c-.193.979-.4,2.021-.6,3.049a7.232,7.232,0,0,1-3.689-1.854,9.771,9.771,0,0,1-2.795-4.166C1271.493,914.777,1271.573,914.355,1271.632,914.032Z" transform="translate(-885.693 -577.205)"/><path class="j" d="M1265.673,828.159a6.956,6.956,0,0,0-5.925,2.538c-2.283,2.959-4.744,12.111.927,17.087s11.274-.656,12.105-6.628S1273.935,827.943,1265.673,828.159Z" transform="translate(-874.407 -509.624)"/><path class="k" d="M1252.875,823.109s-4.866,8.7-8.347,9.1-3.938,5.026-3.938,5.026,1.244-10.656,4.69-12.711A12.774,12.774,0,0,1,1252.875,823.109Z" transform="translate(-861.202 -505.553)"/><path class="o" d="M1296.175,903.85l4.608.182a2.016,2.016,0,0,1-2.2,1.724C1296.105,905.73,1296.175,903.85,1296.175,903.85Z" transform="translate(-905.389 -569.812)"/><path class="p" d="M1492.46,1087.162a12.168,12.168,0,0,1,2.259.5c.784.314,7,5.019,7,5.019s.831.455,1.27.094a1,1,0,0,0,.408-.784,1.507,1.507,0,0,0,1.239.125.843.843,0,0,0,.423-.988,1.415,1.415,0,0,0,1.145-.157c.423-.361.2-1.286.2-1.286s1.333.815,1.851.266.3-1.129-.22-1.568-3.592-2.478-3.952-2.713-1.38-1.317-1.694-1.459-1.082-.564-1.082-.564-1.286.141-1.365.188-.439.941-1.082,1.176a1.643,1.643,0,0,1-1.427-.188,1.189,1.189,0,0,1-.016-.486,11.159,11.159,0,0,0,.612-1.427c.11-.549.251-.706.455-.831s1.318-.455,1.867-.674a9.214,9.214,0,0,1,2.854.423l1.1.47s-.2-.813-.894-.94-1.553-.315-2.039-.362a21.415,21.415,0,0,0-2.133.329,8.339,8.339,0,0,0-2.071.329,24.38,24.38,0,0,1-4.313-.032S1491.331,1085.75,1492.46,1087.162Z" transform="translate(-1061.096 -710.634)"/><path class="p" d="M1306.973,1034c-1.478-.033-18.543-.178-24.953-.231a7.066,7.066,0,0,1-4.312-1.513l-14.26-11.221-6.244,7.2,17.7,12.788a5.962,5.962,0,0,0,4.092,1.1c6.733-.681,26.348-2.631,28.062-2.4Z" transform="translate(-874.408 -662.965)"/><path class="i" d="M1562.807,1041.183c1.478-.033,19.455-.294,25.865-.347a7.064,7.064,0,0,0,4.312-1.513l14.26-11.22,6.244,7.2-17.7,12.788a5.963,5.963,0,0,1-4.092,1.1c-6.733-.682-25.176-2.486-26.89-2.252Z" transform="translate(-1117.35 -668.587)"/><path class="e" d="M1226.056,983.186s-11.937-12.557-16.255-15.726-13-.476-12.315,4.967c.7,5.553,20.2,19.608,20.2,19.608Z" transform="translate(-826.905 -619.303)"/><path class="g" d="M1744.979,983.186s11.937-12.557,16.255-15.726,13-.476,12.314,4.967c-.7,5.553-20.2,19.608-20.2,19.608Z" transform="translate(-1262.17 -619.303)"/><path class="b" d="M1791.655,974.655c-.278,1.923-5.389,54.2-5.389,54.2,24.206,11.691,37.563,2.083,37.563,2.083s-.792-36.712.157-41.709c.628-3.306.043-25.589-2.1-26.2a39.124,39.124,0,0,0-7.969-1.67c-2.933-.3-14.326-.481-16.364.2A25.956,25.956,0,0,0,1791.655,974.655Z" transform="translate(-1294.991 -615.315)"/><path class="j" d="M1864.71,907.453l1.781,10.888s-6.519,13.854-10.415,12.688c-3.268-.978-1.258-12.878-1.258-12.878s1.781-6.39,1.247-9.588S1864.71,907.453,1864.71,907.453Z" transform="translate(-1349.001 -572.144)"/><path class="n" d="M1862.388,908.563c-.534-3.2,8.644-1.11,8.644-1.11l.148.937a5.166,5.166,0,0,1-1,1.574,12.323,12.323,0,0,1-8.026,3.483A16.731,16.731,0,0,0,1862.388,908.563Z" transform="translate(-1355.324 -572.144)"/><path class="j" d="M1852.011,818.44c.259-.09,2.079,12.863-1.374,16.428s-10.183,4.731-12.6,1.924c-2.67-3.1-2.535-17.027,2.834-20.694S1852.011,818.44,1852.011,818.44Z" transform="translate(-1334.796 -499.11)"/><path class="k" d="M1860.959,796.927c1.884.213,4.446,1.212,7.091,5.412,3.252,5.164.851,10.886-2.935,13.693s-3.718,6.022-3.718,6.022l-.614-1.65a9.019,9.019,0,0,1-.474-3.951,7.456,7.456,0,0,1,.612-2.375c.911-1.875-1.956-3.121-2.76-4.68-.619-1.2-.649-3.949-1.624-5.934l-1.165-1.516s-2.686-2-5.315-1.439S1850.658,788.778,1860.959,796.927Z" transform="translate(-1345.01 -482.588)"/><path class="j" d="M1893.815,868.861c-.027,1.58.722,2.874,1.673,2.89s1.745-1.253,1.773-2.833-.722-2.874-1.673-2.89S1893.843,867.281,1893.815,868.861Z" transform="translate(-1380.488 -539.744)"/><path class="o" d="M1844.292,894.378l5.706.581a2.507,2.507,0,0,1-2.869,1.971C1844.06,896.707,1844.292,894.378,1844.292,894.378Z" transform="translate(-1341.116 -562.282)"/><path class="p" d="M1985.449,1080.919a1.532,1.532,0,0,0,.006-.355c-.377-3.827-3.554-35.958-4.089-37.324-.483-1.233-14.732-21.612-14.732-21.612l-7,9.541,13.7,18.279c.307,1.162,5.251,22.852,5.251,22.852s1.014,3.954,1.468,6.322c-.207.57-.41,1.109-.59,1.552a14.242,14.242,0,0,1-1.477,2.373,16.251,16.251,0,0,0-1.75,3.095c-.145.558-.407,1.718-.555,2.418s-.351,1.515-.385,1.895a3.645,3.645,0,0,1-.443,1.018.612.612,0,0,0,.722.882c.5-.165.886-.81,1.124-1.211.674-1.134,1.034-3.2,1.2-3.094s.758,3.621.852,4.018a43.249,43.249,0,0,0,1.2,5.22c.4.745.929.62,1.07.154.12-.4-.442-6.106-.442-6.106s-.07-.728.249-.5.84,5.406,1.061,6.164.727,1.16,1.156.551c.521-.741-.375-6.234-.375-6.234s-.1-.691.194-.626.665,4.478.894,4.86a.582.582,0,0,0,1.085-.118c.325-.749-.517-5.646-.517-5.646s.041-.39.225-.26.768,3.869,1.149,4.216a.4.4,0,0,0,.586.009c.7-.477-.372-4.034-.362-5.8s-.81-3.757-.565-5.863C1985.379,1081.448,1985.422,1081.123,1985.449,1080.919Z" transform="translate(-1432.809 -663.44)"/><path class="b" d="M1953.667,993.8l-12.172,8.172s-6.86-10.208-10.542-13.843c-4.613-4.553,1.68-18.5,4.652-17.711C1942.253,972.185,1953.667,993.8,1953.667,993.8Z" transform="translate(-1408.709 -622.707)"/><path class="j" d="M1245.656,868.837c.73,1.443,2.118,2.16,3.1,1.6s1.183-2.183.453-3.626-2.117-2.16-3.1-1.6S1244.925,867.394,1245.656,868.837Z" transform="translate(-864.88 -538.944)"/><g transform="translate(314.05 207.086)"><g transform="translate(29.222)"><path class="e" d="M1104.99,296.769l1.011,9.637,5.466-6.443,17.8-15.264-15.358,5.222s-7.532,3.871-7.87,4.367A20.049,20.049,0,0,0,1104.99,296.769Z" transform="translate(-1096.677 -284.699)"/><path class="c" d="M1064.448,292.805l32.594-8.106-24.281,12.07Z" transform="translate(-1064.448 -284.699)"/><path class="c" d="M1127.632,303.635l-10.211-4.811,21.732-14.125Z" transform="translate(-1106.559 -284.699)"/></g><g transform="translate(0 17.219)"><g transform="translate(0 4.273)"><path class="a" d="M922.048,424.629a21.342,21.342,0,0,1-.115-2.333c0-.719.044-1.453.12-2.179l.787.082c-.073.7-.112,1.408-.116,2.1a20.554,20.554,0,0,0,.111,2.247q.034.325.078.65l-.784.107C922.1,425.076,922.07,424.849,922.048,424.629Zm1.091-9.575a30.056,30.056,0,0,1,2.021-4.755l.7.369a29.262,29.262,0,0,0-1.968,4.629Zm24.013-7.41-.154-.054.273-.742.127.045a.455.455,0,0,0,.083.006,3.647,3.647,0,0,0,2.072-.78,3.352,3.352,0,0,0,.9-1.71l.772.171a4.184,4.184,0,0,1-1.123,2.1,4.4,4.4,0,0,1-2.629,1.006A1.031,1.031,0,0,1,947.152,407.645ZM927.9,405.927a41.174,41.174,0,0,1,3.293-3.964l.576.542a40.379,40.379,0,0,0-3.229,3.888Zm14.738-3.541a9.617,9.617,0,0,1-.264-2.325,11.372,11.372,0,0,1,.087-1.331l.785.1a10.6,10.6,0,0,0-.081,1.238,8.837,8.837,0,0,0,.242,2.134,7.312,7.312,0,0,0,.5,1.4l-.715.339A8.1,8.1,0,0,1,942.635,402.386Zm2.75-4.806-.109-.023.159-.775.118.025a7.957,7.957,0,0,1,4.436,2.636l-.614.5A7.154,7.154,0,0,0,945.385,397.58Zm-10,1.307a18.084,18.084,0,0,1,3.046-1.52c.627-.183,1.208-.33,1.774-.448l.162.774c-.546.114-1.106.256-1.714.433a16.358,16.358,0,0,0-2.866,1.442Zm8.654-5.128a17.691,17.691,0,0,1,3.016-4.24l.57.548a16.9,16.9,0,0,0-2.882,4.051Z" transform="translate(-921.932 -389.519)"/></g><g transform="translate(29.248)"><path class="a" d="M1064.96,370.466a15.26,15.26,0,0,1,2.318-1.043l-.262-.746a16.048,16.048,0,0,0-2.438,1.1Z" transform="translate(-1064.578 -368.677)"/></g></g></g><g transform="translate(594.382 404.193)"><rect class="c" width="17.459" height="135.137" transform="translate(81.523)"/><rect class="c" width="17.459" height="93.917" transform="translate(57.141 40.458)"/><rect class="c" width="17.459" height="105.859" transform="translate(106.256 29.279)"/><rect class="c" width="17.459" height="110.022" transform="translate(32.759 24.354)"/><rect class="c" width="17.459" height="77.401" transform="translate(8.376 56.974)"/><g transform="translate(8.376 30.383)"><rect class="e" width="17.459" height="104.754" transform="translate(73.147)"/><rect class="e" width="17.459" height="72.272" transform="translate(48.765 31.72)"/><rect class="e" width="17.459" height="82.223" transform="translate(97.88 22.531)"/><rect class="e" width="17.459" height="84.665" transform="translate(24.382 19.327)"/><rect class="e" width="17.459" height="59.562" transform="translate(0 44.43)"/></g><path class="k" d="M2417.632,1353.291l-14.055,9.6,4.636.8-26.334,40.942-16.47-26.321-29.4,64.562-16.2-17.584-13.068,24.9-6.442-5.224-11.167,21.552,4.728.716,7.884-15.347,6.419,5.2,12.656-24.115,16.471,17.873,28.745-63.124,15.794,25.24,30.168-46.9,2.709,3.987Z" transform="translate(-2289.125 -1331.292)"/></g><rect class="k" width="789.507" height="1.64" transform="translate(43.078 538.495)"/></g></svg>