<svg id="ICCO_DOWNLD" xmlns="http://www.w3.org/2000/svg" width="68" height="92" viewBox="0 0 68 92">
  <path id="Path_1654" data-name="Path 1654" d="M35.414,50.586a2,2,0,0,0-2.828,2.828l15,15a2,2,0,0,0,2.828,0l15-15a2,2,0,0,0-2.828-2.828L51,62.171V4a2,2,0,0,0-4,0V62.171Z" transform="translate(-15 -2)" fill="#1ec1af"/>
  <path id="Path_1655" data-name="Path 1655" d="M38,26H26.245A10.92,10.92,0,0,0,15,36.819v45.9A11.277,11.277,0,0,0,26.245,94h45.9A10.956,10.956,0,0,0,83,82.719v-45.9A10.6,10.6,0,0,0,72.146,26H60a2,2,0,0,0,0,4H72.146A6.541,6.541,0,0,1,79,36.819v45.9C79,86.87,76.053,90,72.146,90h-45.9A7.272,7.272,0,0,1,19,82.719v-45.9C19,32.932,22.115,30,26.245,30H38a2,2,0,0,0,0-4Z" transform="translate(-15 -2)" fill="#1ec1af"/>
</svg>
