<svg id="Component_85_2" data-name="Component 85 – 2" xmlns="http://www.w3.org/2000/svg" width="32.33" height="30" viewBox="0 0 32.33 30">
  <rect id="Rectangle_599" data-name="Rectangle 599" width="30" height="30" fill="none"/>
  <g id="noun_User_key_3209944" data-name="noun_User key_3209944" transform="translate(-4.001 -8.143)">
    <path id="Path_1693" data-name="Path 1693" d="M35.479,22.91h0l.667-.667a.632.632,0,1,0-.894-.894l-.221.221-1.42-1.42a.632.632,0,0,0-.894.894l1.42,1.42L32.861,23.74l-1.035-1.035a.632.632,0,0,0-.894.894l1.035,1.035L26.906,29.7a5.156,5.156,0,0,0-5.1-.727A10.143,10.143,0,0,0,6,37.095a.632.632,0,0,0,.632.652h13.8A5.165,5.165,0,0,0,27.8,30.59l7.679-7.679ZM16.155,28.5a8.8,8.8,0,0,1,4.413,1.181,5.24,5.24,0,0,0-.5.43,5.174,5.174,0,0,0-.738,6.37H7.307A8.855,8.855,0,0,1,16.155,28.5Zm10.334,8.027a3.905,3.905,0,1,1,0-5.522A3.909,3.909,0,0,1,26.489,36.529Z" transform="translate(0 -3.662)" fill="#1ec1af"/>
    <path id="Path_1694" data-name="Path 1694" d="M18.568,10.016a6.018,6.018,0,1,0,6.018,6.018A6.025,6.025,0,0,0,18.568,10.016Zm0,10.772a4.754,4.754,0,1,1,4.754-4.754A4.759,4.759,0,0,1,18.568,20.788Z" transform="translate(-2.411)" fill="#1ec1af"/>
    <path id="Path_1695" data-name="Path 1695" d="M31.993,39.629a1.9,1.9,0,1,0,1.9,1.9A1.9,1.9,0,0,0,31.993,39.629Zm0,2.528a.632.632,0,1,1,.632-.632A.633.633,0,0,1,31.993,42.157Z" transform="translate(-8.87 -10.901)" fill="#1ec1af"/>
  </g>
</svg>
