<svg id="ICO_telefono" xmlns="http://www.w3.org/2000/svg" width="30" height="30" viewBox="0 0 30 30">
  <rect id="Rectangle_558" data-name="Rectangle 558" width="30" height="30" fill="none"/>
  <path id="Path_1550" data-name="Path 1550" d="M1192.538,508.629a4.108,4.108,0,0,0-2.484,2.281c-3.828-1.384-7.784-7.249-7.784-7.249l-.016.03a9.976,9.976,0,0,1-.7-1.5,4.111,4.111,0,0,0,2.281-2.485l-5.864-5.864a7.743,7.743,0,0,0-2.2,9.693,26.228,26.228,0,0,0,4.192,6.236,24.569,24.569,0,0,0,4.89,4.664l.078.06,0,0a22.828,22.828,0,0,0,3.777,2.2,7.746,7.746,0,0,0,9.693-2.2Z" transform="translate(-1170.373 -490.346)" fill="none" stroke="#1ec1af" stroke-linecap="round" stroke-linejoin="round" stroke-width="1.5"/>
</svg>
