<svg id="ICO_load" xmlns="http://www.w3.org/2000/svg" width="83.999" height="85.664" viewBox="0 0 83.999 85.664">
  <g id="Group_638" data-name="Group 638">
    <path id="Path_1641" data-name="Path 1641" d="M74.849,380.787a7.427,7.427,0,1,0,10.512,0A7.415,7.415,0,0,0,74.849,380.787Z" transform="translate(-61.347 -315.264)" fill="#1ec1af"/>
    <path id="Path_1642" data-name="Path 1642" d="M21.7,231.539a8.36,8.36,0,1,0-8.36,8.352A8.359,8.359,0,0,0,21.7,231.539Z" transform="translate(-4.982 -185.845)" fill="#1ec1af"/>
    <path id="Path_1643" data-name="Path 1643" d="M70.86,67.788a9.279,9.279,0,1,0,9.288,9.281A9.284,9.284,0,0,0,70.86,67.788Z" transform="translate(-52.104 -56.447)" fill="#1ec1af"/>
    <path id="Path_1644" data-name="Path 1644" d="M216.249.008a10.209,10.209,0,1,0,10.219,10.209A10.214,10.214,0,0,0,216.249.008Z" transform="translate(-172.393 -0.008)" fill="#1ec1af"/>
    <path id="Path_1645" data-name="Path 1645" d="M234.75,434.336a6.5,6.5,0,1,0,6.5,6.5A6.5,6.5,0,0,0,234.75,434.336Z" transform="translate(-190.894 -361.666)" fill="#1ec1af"/>
    <path id="Path_1646" data-name="Path 1646" d="M456.133,245.375a4.64,4.64,0,1,0,4.648,4.64A4.64,4.64,0,0,0,456.133,245.375Z" transform="translate(-376.782 -204.321)" fill="#1ec1af"/>
    <path id="Path_1647" data-name="Path 1647" d="M385.438,391.328a5.571,5.571,0,1,0,7.884,0A5.567,5.567,0,0,0,385.438,391.328Z" transform="translate(-320.423 -324.495)" fill="#1ec1af"/>
    <path id="Path_1648" data-name="Path 1648" d="M400.755,106.364a3.711,3.711,0,1,0-3.715-3.712A3.713,3.713,0,0,0,400.755,106.364Z" transform="translate(-331.442 -82.389)" fill="#1ec1af"/>
  </g>
</svg>
