<svg id="ICO_error" xmlns="http://www.w3.org/2000/svg" width="30" height="30" viewBox="0 0 30 30">
  <g id="noun_Error_2602002" transform="translate(-2 -8.734)">
    <path id="Path_1680" data-name="Path 1680" d="M16.067,29.271a.945.945,0,0,1,.266-.662.939.939,0,0,1,1.031-.2.962.962,0,0,1,.3.2.906.906,0,0,1,.2.3.974.974,0,0,1,0,.733.909.909,0,0,1-.5.491.989.989,0,0,1-.734,0,.878.878,0,0,1-.3-.2.942.942,0,0,1-.195-.294A.922.922,0,0,1,16.067,29.271ZM17.69,19.8v4.578q0,.36-.012.7c-.007.229-.019.46-.035.692s-.035.47-.059.713-.051.5-.083.78h-.955q-.047-.416-.083-.78t-.059-.713q-.024-.348-.035-.692t-.012-.7V19.8ZM17,14.067l10.933,17.6H6.067L17,14.067M17,13a1.067,1.067,0,0,0-.906.5L5.16,31.1a1.067,1.067,0,0,0,.906,1.63H27.933a1.067,1.067,0,0,0,.906-1.63L17.906,13.5A1.066,1.066,0,0,0,17,13Z" fill="#1ec1af"/>
  </g>
  <rect id="Rectangle_631" data-name="Rectangle 631" width="30" height="30" fill="none"/>
</svg>
