<svg id="aclaraciones_24_25x" xmlns="http://www.w3.org/2000/svg" width="24" height="25" viewBox="0 0 24 25">
  <rect id="Rectangle_559" data-name="Rectangle 559" width="24" height="25" fill="none"/>
  <g id="Group_482" data-name="Group 482" transform="translate(2.416 4.678)">
    <path id="Path_1540" data-name="Path 1540" d="M1184.7,545.227A9.356,9.356,0,0,0,1176,558.065a16.56,16.56,0,0,1,6.907-2.151,1.883,1.883,0,0,1-.02-.2,1.8,1.8,0,1,1,3.61,0,1.739,1.739,0,0,1-.02.2,16.56,16.56,0,0,1,6.906,2.151,9.356,9.356,0,0,0-8.691-12.838Z" transform="translate(-1175.332 -545.227)" fill="none" stroke="#1ec1af" stroke-miterlimit="10" stroke-width="1.5"/>
    <path id="Path_1541" data-name="Path 1541" d="M1190.516,560.547a1.738,1.738,0,0,0,.02-.2,1.8,1.8,0,1,0-3.61,0,1.913,1.913,0,0,0,.02.2c.585-.055,1.178-.093,1.785-.093S1189.93,560.492,1190.516,560.547Z" transform="translate(-1179.368 -549.86)" fill="none" stroke="#1ec1af" stroke-miterlimit="10" stroke-width="1.5"/>
    <path id="Path_1542" data-name="Path 1542" d="M1186.839,561.57c-.585-.055-1.178-.093-1.784-.093s-1.2.038-1.785.093a16.561,16.561,0,0,0-6.907,2.151,9.332,9.332,0,0,0,1.156,2.085h15.071a9.341,9.341,0,0,0,1.156-2.085A16.561,16.561,0,0,0,1186.839,561.57Z" transform="translate(-1175.691 -550.883)" fill="none" stroke="#1ec1af" stroke-miterlimit="10" stroke-width="1.5"/>
    <line id="Line_43" data-name="Line 43" x1="2.168" y2="6.441" transform="translate(10.055 2.377)" fill="none" stroke="#1ec1af" stroke-linecap="round" stroke-linejoin="round" stroke-width="1.5"/>
    <line id="Line_44" data-name="Line 44" x2="1.754" transform="translate(0.006 9.106)" fill="none" stroke="#1ec1af" stroke-linecap="round" stroke-linejoin="round" stroke-width="1.5"/>
    <line id="Line_45" data-name="Line 45" y2="1.754" transform="translate(9.363 0)" fill="none" stroke="#1ec1af" stroke-linecap="round" stroke-linejoin="round" stroke-width="1.5"/>
    <line id="Line_46" data-name="Line 46" x2="1.494" y2="1.494" transform="translate(2.897 2.595)" fill="none" stroke="#1ec1af" stroke-linecap="round" stroke-linejoin="round" stroke-width="1.5"/>
    <line id="Line_47" data-name="Line 47" x1="1.754" transform="translate(16.973 9.352)" fill="none" stroke="#1ec1af" stroke-linecap="round" stroke-linejoin="round" stroke-width="1.5"/>
    <line id="Line_48" data-name="Line 48" x1="1.494" y2="1.494" transform="translate(14.342 2.841)" fill="none" stroke="#1ec1af" stroke-linecap="round" stroke-linejoin="round" stroke-width="1.5"/>
  </g>
</svg>
