<svg id="chat_24_25x" xmlns="http://www.w3.org/2000/svg" width="24" height="25" viewBox="0 0 24 25">
  <rect id="Rectangle_560" data-name="Rectangle 560" width="24" height="25" fill="none"/>
  <g id="Group_481" data-name="Group 481" transform="translate(2.4 4.199)">
    <path id="Path_1539" data-name="Path 1539" d="M1187.86,595.8c-5.084,0-9.2,3.508-9.2,7.836a7.152,7.152,0,0,0,2.161,5.039l-1.932,3.969,5.038-1.925,0-.011a10.487,10.487,0,0,0,3.942.764c5.083,0,9.2-3.508,9.2-7.836S1192.943,595.8,1187.86,595.8Z" transform="translate(-1178.656 -595.799)" fill="none" stroke="#1ec1af" stroke-linejoin="round" stroke-width="1.5"/>
    <g id="Group_480" data-name="Group 480" transform="translate(3.208 6.549)">
      <ellipse id="Ellipse_136" data-name="Ellipse 136" cx="1.377" cy="1.377" rx="1.377" ry="1.377" fill="none" stroke="#1ec1af" stroke-linejoin="round" stroke-width="1.5"/>
      <ellipse id="Ellipse_137" data-name="Ellipse 137" cx="1.377" cy="1.377" rx="1.377" ry="1.377" transform="translate(4.62)" fill="none" stroke="#1ec1af" stroke-linejoin="round" stroke-width="1.5"/>
      <ellipse id="Ellipse_138" data-name="Ellipse 138" cx="1.377" cy="1.377" rx="1.377" ry="1.377" transform="translate(9.241)" fill="none" stroke="#1ec1af" stroke-linejoin="round" stroke-width="1.5"/>
    </g>
  </g>
</svg>
