<svg id="cumpleanos_24_25x" xmlns="http://www.w3.org/2000/svg" width="24" height="25" viewBox="0 0 24 25">
  <rect id="Rectangle_555" data-name="Rectangle 555" width="24" height="25" fill="none"/>
  <g id="Group_484" data-name="Group 484" transform="translate(3.199 3.199)">
    <path id="Path_1544" data-name="Path 1544" d="M1190.705,358.135h-.334a1.51,1.51,0,0,1-2.707,0h-.334a1.51,1.51,0,0,1-2.707,0h-.334a1.509,1.509,0,0,1-2.706,0h-.334a1.51,1.51,0,0,1-2.707,0h-.172a1.5,1.5,0,0,1-2,.689v3.986a1.244,1.244,0,0,0,1.244,1.244h13.856a1.244,1.244,0,0,0,1.244-1.244v-3.986a1.5,1.5,0,0,1-2-.689Z" transform="translate(-1175.497 -346.792)" fill="none" stroke="#1ec1af" stroke-miterlimit="10" stroke-width="1.5"/>
    <path id="Path_1545" data-name="Path 1545" d="M1193.2,352.628a.855.855,0,0,0-.855-.855h-16.363a.856.856,0,0,0-.855.855v2.707c0,.015,0,.029,0,.044,0,.044-.013.086-.013.131a1.516,1.516,0,0,0,2.874.679h.171a1.51,1.51,0,0,0,2.707,0h.334a1.509,1.509,0,0,0,2.706,0h.334a1.51,1.51,0,0,0,2.707,0h.334a1.51,1.51,0,0,0,2.707,0h.334a1.518,1.518,0,0,0,2.874-.679c0-.031-.007-.058-.009-.088a.717.717,0,0,0,.009-.087Z" transform="translate(-1175.114 -344.847)" fill="none" stroke="#1ec1af" stroke-miterlimit="10" stroke-width="1.5"/>
    <rect id="Rectangle_498" data-name="Rectangle 498" width="2.164" height="2.562" transform="translate(7.959 4.364)" fill="none" stroke="#1ec1af" stroke-linecap="round" stroke-linejoin="round" stroke-width="1.5"/>
    <path id="Path_1546" data-name="Path 1546" d="M1188.84,343.988a1.259,1.259,0,1,1-2.517,0c0-.7,1.259-2.19,1.259-2.19S1188.84,343.293,1188.84,343.988Z" transform="translate(-1178.541 -341.798)" fill="none" stroke="#1ec1af" stroke-linecap="round" stroke-linejoin="round" stroke-width="1.5"/>
    <line id="Line_49" data-name="Line 49" y2="0.915" transform="translate(9.041 3.449)" fill="none" stroke="#1ec1af" stroke-linecap="round" stroke-linejoin="round" stroke-width="1.5"/>
  </g>
</svg>
