<svg id="empresa_24_25x" xmlns="http://www.w3.org/2000/svg" width="24" height="25" viewBox="0 0 24 25">
  <rect id="Rectangle_996" data-name="Rectangle 996" width="24" height="25" fill="none"/>
  <g id="noun_corporate_vpn_3627959" data-name="noun_corporate vpn_3627959" transform="translate(-72.1 -133)">
    <g id="Group_1510" data-name="Group 1510" transform="translate(74.1 136)">
      <path id="Path_2094" data-name="Path 2094" d="M81.836,347.543H74.1V334.482a1.06,1.06,0,0,1,1.038-1.082h6.7ZM75.193,346.4h5.55V334.539h-5.55Z" transform="translate(-74.1 -327.778)" fill="#1ec1af"/>
      <path id="Path_2095" data-name="Path 2095" d="M330.648,155.765H317.3V137.082A1.082,1.082,0,0,1,318.382,136h11.184a1.082,1.082,0,0,1,1.082,1.082v18.682h-1.139V137.139h-11.07v17.486h12.209Z" transform="translate(-310.705 -136)" fill="#1ec1af"/>
      <rect id="Rectangle_974" data-name="Rectangle 974" width="1.139" height="1.874" transform="translate(14.659 2.557)" fill="#1ec1af"/>
      <rect id="Rectangle_975" data-name="Rectangle 975" width="1.139" height="1.874" transform="translate(10.832 2.557)" fill="#1ec1af"/>
      <rect id="Rectangle_976" data-name="Rectangle 976" width="1.139" height="1.874" transform="translate(14.659 6.351)" fill="#1ec1af"/>
      <rect id="Rectangle_977" data-name="Rectangle 977" width="1.139" height="1.874" transform="translate(10.832 6.351)" fill="#1ec1af"/>
      <rect id="Rectangle_978" data-name="Rectangle 978" width="1.139" height="1.874" transform="translate(10.871 10.147)" fill="#1ec1af"/>
      <rect id="Rectangle_986" data-name="Rectangle 986" width="1.139" height="1.874" transform="translate(14.659 10.147)" fill="#1ec1af"/>
      <path id="Path_2096" data-name="Path 2096" d="M436.687,614.225H433.6V607.9h3.087v1.139h-1.948v4.047h1.948Z" transform="translate(-423.621 -594.461)" fill="#1ec1af"/>
      <path id="Path_2108" data-name="Path 2108" d="M3.782,6.325H0V0H3.087V1.139H1.139V5.186H3.782Z" transform="translate(16.364 19.764) rotate(180)" fill="#1ec1af"/>
      <rect id="Rectangle_979" data-name="Rectangle 979" width="2.387" height="1.139" transform="translate(2.839 8.176)" fill="#1ec1af"/>
      <rect id="Rectangle_980" data-name="Rectangle 980" width="2.387" height="1.139" transform="translate(2.839 10.808)" fill="#1ec1af"/>
      <rect id="Rectangle_981" data-name="Rectangle 981" width="2.387" height="1.139" transform="translate(2.839 13.439)" fill="#1ec1af"/>
      <rect id="Rectangle_982" data-name="Rectangle 982" width="2.387" height="1.139" transform="translate(2.839 16.068)" fill="#1ec1af"/>
      <rect id="Rectangle_983" data-name="Rectangle 983" width="3.094" height="1.139" transform="translate(9.978 13.439)" fill="#1ec1af"/>
      <rect id="Rectangle_985" data-name="Rectangle 985" width="3.094" height="1.139" transform="translate(16.364 19.764) rotate(180)" fill="#1ec1af"/>
    </g>
  </g>
</svg>
