<svg id="foco_24_25x" xmlns="http://www.w3.org/2000/svg" width="24" height="25" viewBox="0 0 24 25">
  <rect id="Rectangle_995" data-name="Rectangle 995" width="24" height="25" fill="none"/>
  <g id="noun_Light_3725467" transform="translate(-23.18 -27.635)">
    <g id="Capa_2" data-name="Capa 2" transform="translate(28.18 30.635)">
      <path id="Path_2110" data-name="Path 2110" d="M51.41,40.7a.55.55,0,0,1-.383-.157,3.607,3.607,0,0,0-2.576-1.068.54.54,0,1,1,0-1.081,4.713,4.713,0,0,1,3.343,1.382.544.544,0,0,1,0,.767A.55.55,0,0,1,51.41,40.7Z" transform="translate(-41.437 -35.954)" fill="#1ec1af"/>
      <rect id="Rectangle_991" data-name="Rectangle 991" width="5.417" height="1.225" transform="translate(4.381 13.777)" fill="#1ec1af"/>
      <rect id="Rectangle_992" data-name="Rectangle 992" width="5.417" height="1.225" transform="translate(4.381 15.804)" fill="#1ec1af"/>
      <path id="Path_2111" data-name="Path 2111" d="M35.249,50.04a3.619,3.619,0,0,1-3.616-3.619v-.949a4.215,4.215,0,0,0-1.458-2.845,7.069,7.069,0,1,1,10.147,0,4.258,4.258,0,0,0-1.455,2.845v.949A3.622,3.622,0,0,1,35.249,50.04Zm0-18.143a5.8,5.8,0,0,0-4.166,9.849A5.386,5.386,0,0,1,32.9,45.472v.949a2.352,2.352,0,1,0,4.7,0v-.949a5.386,5.386,0,0,1,1.814-3.726,5.8,5.8,0,0,0-4.166-9.839Z" transform="translate(-28.18 -30.635)" fill="#1ec1af"/>
    </g>
  </g>
</svg>
