<svg xmlns="http://www.w3.org/2000/svg" width="30" height="30" viewBox="0 0 30 30"><defs><style>.a{fill:#7c7c7c;}.b{fill:none;}</style></defs><g transform="translate(-26.389 -13.244)"><g transform="translate(35.389 15.244)"><g transform="translate(0)"><path class="a" d="M40.9,41.244c-3.449,0-5.509-2.324-5.511-6.215L35.41,19.27a4.474,4.474,0,0,1,.781-2.46,3.65,3.65,0,0,1,3.148-1.566h0A3.7,3.7,0,0,1,42.512,16.7a4.383,4.383,0,0,1,.774,2.5l-.019,15.827a3.059,3.059,0,0,1-.721,2.218,2.455,2.455,0,0,1-1.809.664h-.006c-1.433,0-2.289-1.079-2.291-2.888l-.006-15.776a.749.749,0,0,1,.748-.748h0a.748.748,0,0,1,.748.748l.007,15.776c0,1.38.548,1.393.789,1.393h.009a1.044,1.044,0,0,0,.752-.226,1.777,1.777,0,0,0,.282-1.161l.019-15.828a2.851,2.851,0,0,0-.486-1.621,2.276,2.276,0,0,0-1.961-.845h0a2.2,2.2,0,0,0-1.922.926,3,3,0,0,0-.512,1.6l-.021,15.76c0,2.151.7,4.717,4.015,4.718,3.243,0,3.923-2.564,3.923-4.714l-.032-13.7a.748.748,0,0,1,.746-.75h0a.748.748,0,0,1,.748.747l.032,13.7C46.319,38.98,44.344,41.243,40.9,41.244Z" transform="translate(-35.389 -15.244)"/></g></g></g><rect class="b" width="30" height="30"/></svg>