<svg xmlns="http://www.w3.org/2000/svg" width="30" height="30" viewBox="0 0 30 30"><defs><style>.a{fill:#1ec1af;}.b{fill:none;}</style></defs><g transform="translate(-2.997 -3.027)"><path class="a" d="M5.027,29.8l2.195-9.5a1.017,1.017,0,0,1,.866-.78l12.273-1.271a.307.307,0,0,0,0-.606L8.088,16.455a.954.954,0,0,1-.866-.751L5.027,6.232a.988.988,0,0,1,1.415-1.1l24,12.013a1.011,1.011,0,0,1,0,1.79l-24,11.955A.988.988,0,0,1,5.027,29.8Z" transform="translate(0 0)"/></g><rect class="b" width="30" height="30"/></svg>