<svg id="Capa_1" data-name="Capa 1" xmlns="http://www.w3.org/2000/svg" viewBox="0 0 38.98 39.52"><defs><style>.cls-1{fill:#1ec1af;}</style></defs><path class="cls-1" d="M36.35,3.38a10.72,10.72,0,0,0-18.27,6.74,10.82,10.82,0,0,0,1.65,6.61L1.18,35.28a2.31,2.31,0,0,0,1.64,3.94,2.29,2.29,0,0,0,1.63-.67l2-2L9,39.08a2.3,2.3,0,0,0,1.64.68,2.26,2.26,0,0,0,1.63-.68,2.3,2.3,0,0,0,0-3.27l-1.33-1.34L12.39,33l1.34,1.34a2.33,2.33,0,0,0,3.27,0,2.3,2.3,0,0,0,.68-1.64A2.26,2.26,0,0,0,17,31.06l-2.53-2.53L23,20A10.72,10.72,0,0,0,36.35,3.38Zm-.89,14.27a9.46,9.46,0,0,1-12.17,1,.62.62,0,0,0-.81.07l-9.34,9.34a.64.64,0,0,0-.19.45.6.6,0,0,0,.19.44l3,3a1,1,0,0,1,.31.74,1,1,0,0,1-.31.74,1.05,1.05,0,0,1-1.49,0l-1.78-1.78a.62.62,0,0,0-.89,0L9.57,34a.62.62,0,0,0,0,.89l1.78,1.78a1.06,1.06,0,0,1,0,1.49,1,1,0,0,1-.74.31,1,1,0,0,1-.74-.31l-3-3A.59.59,0,0,0,6.45,35a.61.61,0,0,0-.45.19L3.56,37.66a1.07,1.07,0,0,1-.74.3,1,1,0,0,1-.74-1.79L21,17.25a.62.62,0,0,0,.07-.81,9.46,9.46,0,1,1,14.4,1.21Z" transform="translate(-0.51 -0.24)"/><path class="cls-1" d="M28.56,18.25a7.09,7.09,0,1,1,7.09-7.08A7.08,7.08,0,0,1,28.56,18.25Zm0-13a5.93,5.93,0,1,0,5.93,5.93A5.94,5.94,0,0,0,28.56,5.24Z" transform="translate(-0.51 -0.24)"/></svg>