<svg id="telefono_24_25x" xmlns="http://www.w3.org/2000/svg" width="24" height="25" viewBox="0 0 24 25">
  <rect id="Rectangle_558" data-name="Rectangle 558" width="24" height="25" fill="none"/>
  <path id="Path_1550" data-name="Path 1550" d="M1189.013,505.672a3.286,3.286,0,0,0-1.987,1.825c-3.063-1.107-6.227-5.8-6.227-5.8l-.013.024a7.986,7.986,0,0,1-.561-1.2,3.289,3.289,0,0,0,1.825-1.988l-4.691-4.691a6.2,6.2,0,0,0-1.759,7.754,20.98,20.98,0,0,0,3.354,4.989,19.656,19.656,0,0,0,3.912,3.731l.063.048,0,0a18.267,18.267,0,0,0,3.022,1.759,6.2,6.2,0,0,0,7.755-1.759Z" transform="translate(-1171.281 -491.045)" fill="none" stroke="#1ec1af" stroke-linecap="round" stroke-linejoin="round" stroke-width="1.5"/>
</svg>
